<?xml version="1.0" standalone="no"?>
<!DOCTYPE svg PUBLIC "-//W3C//DTD SVG 20010904//EN"
 "http://www.w3.org/TR/2001/REC-SVG-20010904/DTD/svg10.dtd">
<svg version="1.0" xmlns="http://www.w3.org/2000/svg"
 width="832.000000pt" height="832.000000pt" viewBox="0 0 832.000000 832.000000"
 preserveAspectRatio="xMidYMid meet">
<metadata>
Created by potrace 1.11, written by Peter Selinger 2001-2013
</metadata>
<g transform="translate(0.000000,832.000000) scale(0.100000,-0.100000)"
fill="#000000" stroke="none">
<path d="M4028 8204 c-3 -3 -48 -7 -99 -9 -52 -3 -114 -7 -139 -10 -95 -10
-146 -16 -180 -21 -19 -2 -48 -6 -65 -9 -27 -3 -82 -13 -170 -30 -59 -11 -81
-16 -140 -31 -77 -18 -79 -19 -150 -38 -33 -9 -67 -19 -75 -21 -8 -2 -60 -18
-115 -36 -55 -18 -102 -34 -105 -34 -3 -1 -18 -7 -35 -14 -16 -7 -57 -23 -90
-36 -103 -39 -185 -77 -345 -159 -85 -43 -165 -84 -177 -90 -13 -6 -23 -14
-23 -18 0 -5 -6 -8 -14 -8 -7 0 -19 -7 -26 -15 -7 -8 -16 -12 -21 -9 -5 3 -9
0 -9 -5 0 -6 -7 -11 -15 -11 -8 0 -15 -4 -15 -10 0 -5 -4 -10 -10 -10 -10 0
-209 -132 -241 -160 -37 -32 -48 -40 -56 -40 -5 0 -15 -9 -23 -20 -8 -11 -18
-20 -23 -20 -9 0 -22 -11 -65 -50 -15 -14 -38 -33 -51 -42 -21 -15 -183 -162
-230 -209 -114 -113 -256 -273 -346 -389 -37 -47 -77 -98 -90 -115 -14 -16
-25 -36 -25 -42 0 -7 -4 -13 -8 -13 -5 0 -15 -12 -23 -27 -8 -16 -21 -36 -30
-46 -9 -9 -22 -30 -30 -45 -8 -15 -17 -29 -20 -32 -5 -5 -65 -103 -101 -165
-48 -83 -177 -345 -171 -345 5 0 3 -4 -2 -8 -12 -8 -35 -52 -39 -72 -1 -8 -10
-33 -20 -55 -48 -109 -141 -381 -161 -472 -2 -10 -8 -33 -14 -51 -5 -18 -10
-36 -11 -40 0 -4 -5 -23 -10 -42 -5 -19 -11 -46 -14 -60 -2 -14 -7 -41 -11
-60 -3 -19 -8 -44 -10 -55 -2 -11 -4 -20 -5 -20 -1 0 -3 -11 -4 -25 -2 -14 -6
-43 -10 -65 -8 -41 -11 -65 -21 -150 -3 -27 -8 -66 -10 -85 -23 -195 -23 -652
0 -815 2 -16 7 -57 11 -90 3 -33 8 -69 10 -80 3 -11 7 -40 10 -65 2 -25 7 -53
10 -62 3 -10 7 -30 10 -45 4 -27 20 -109 29 -148 2 -11 11 -47 21 -80 9 -33
17 -67 18 -75 6 -47 109 -352 157 -465 7 -16 13 -32 14 -35 6 -17 24 -58 72
-159 29 -62 53 -117 53 -121 0 -4 7 -13 15 -20 8 -7 13 -16 10 -20 -3 -5 -1
-11 4 -15 6 -3 20 -27 33 -53 13 -26 26 -48 31 -50 4 -2 7 -8 7 -13 0 -14 110
-193 124 -201 6 -4 7 -8 1 -8 -6 0 -6 -3 0 -8 6 -4 33 -41 60 -82 27 -41 58
-84 68 -95 10 -11 26 -32 35 -47 9 -16 20 -28 24 -28 4 0 8 -5 8 -11 0 -6 6
-16 13 -23 7 -8 29 -32 48 -56 81 -99 112 -133 264 -285 166 -167 210 -207
285 -265 25 -19 49 -40 55 -46 9 -10 119 -92 251 -187 29 -20 56 -37 61 -37 6
0 18 -9 28 -20 10 -11 22 -20 28 -20 5 0 21 -8 35 -19 15 -10 43 -28 62 -39
19 -11 64 -36 100 -57 75 -43 343 -173 390 -190 31 -11 50 -19 75 -33 17 -9
30 -15 30 -13 0 2 22 -4 53 -16 9 -3 20 -7 25 -8 4 -2 9 -4 12 -5 3 -1 8 -3
13 -5 4 -1 16 -5 27 -9 11 -4 31 -12 45 -16 14 -4 34 -11 45 -16 11 -4 25 -8
30 -9 23 -6 171 -48 185 -53 8 -3 26 -7 40 -9 14 -2 36 -8 50 -13 14 -5 39
-11 55 -14 17 -2 30 -5 30 -6 0 -1 11 -3 25 -6 14 -2 48 -9 75 -14 28 -5 66
-12 85 -15 19 -3 46 -7 60 -10 207 -36 611 -56 845 -40 79 5 187 15 225 20 19
2 55 7 80 10 44 6 55 8 130 20 32 5 93 16 160 29 121 24 319 79 457 127 65 22
134 46 153 52 19 6 37 14 40 17 3 3 10 6 15 7 6 1 31 11 58 22 26 11 48 20 50
19 1 -1 16 5 32 14 17 9 91 46 165 82 74 37 158 80 185 96 28 17 62 35 78 41
15 6 27 14 27 18 0 4 16 15 36 24 19 10 40 22 47 27 23 19 112 80 127 87 20 9
210 153 280 212 160 134 295 262 397 377 29 33 67 75 84 94 17 19 47 55 68 80
20 25 46 56 59 70 12 14 22 28 22 32 0 3 6 13 13 20 7 7 24 29 37 48 13 19 27
37 30 40 3 3 29 41 58 85 28 44 55 85 60 90 51 62 281 496 274 517 -1 5 2 8 8
8 5 0 10 9 10 20 0 11 4 20 8 20 5 0 9 6 10 13 0 6 18 55 40 107 38 92 109
294 116 328 1 10 13 49 25 88 12 39 24 84 26 100 2 16 4 30 6 32 1 1 2 5 4 10
9 33 16 62 21 87 7 38 22 113 28 145 6 32 16 96 22 140 2 19 7 53 10 74 6 40
10 87 20 211 12 151 6 543 -10 676 -2 19 -7 63 -11 99 -4 36 -9 76 -11 90 -7
53 -44 253 -49 271 -4 10 -8 29 -11 41 -2 13 -6 32 -8 43 -8 37 -54 199 -76
270 -12 39 -23 75 -24 82 -1 7 -5 16 -9 19 -4 4 -7 14 -7 22 0 8 -7 28 -15 45
-8 18 -25 61 -38 97 -13 36 -34 88 -47 115 -88 196 -113 249 -119 255 -3 3
-18 30 -33 60 -47 93 -82 155 -90 158 -4 2 -8 9 -8 16 0 7 -8 21 -18 32 -10
10 -25 35 -35 54 -27 55 -226 332 -284 395 -10 11 -40 47 -67 80 -28 33 -57
67 -65 76 -138 144 -321 325 -321 316 0 -3 -17 12 -38 32 -21 20 -53 47 -72
61 -18 14 -38 30 -44 36 -20 19 -240 180 -273 199 -18 11 -33 23 -33 27 0 4
-5 8 -10 8 -9 0 -87 47 -100 60 -3 3 -21 13 -40 24 -19 10 -88 48 -152 83
-105 58 -364 179 -421 198 -12 4 -24 8 -27 9 -52 23 -204 77 -213 75 -1 0 -15
5 -32 11 -37 14 -183 57 -216 64 -13 2 -31 7 -39 10 -8 3 -28 8 -45 11 -38 8
-60 13 -60 15 0 1 -9 3 -20 4 -11 2 -47 9 -80 15 -33 7 -80 15 -105 18 -49 6
-75 11 -75 13 0 2 -85 12 -225 26 -136 13 -437 20 -447 11 -3 -4 -13 -2 -23 3
-10 5 -20 7 -22 4z"/>
</g>
</svg>
