<?xml version="1.0" encoding="utf-8"?>
<!-- Generator: Adobe Illustrator 23.0.6, SVG Export Plug-In . SVG Version: 6.00 Build 0)  -->
<svg version="1.1" id="Layer_1" xmlns="http://www.w3.org/2000/svg" xmlns:xlink="http://www.w3.org/1999/xlink" x="0px" y="0px"
	 viewBox="0 0 831.6 810.4" style="enable-background:new 0 0 831.6 810.4;" xml:space="preserve">
<style type="text/css">
	.st0{clip-path:url(#SVGID_2_);}
	.st1{fill:#1F2740;}
	.st2{fill:#13192D;}
	.st3{opacity:0.5;}
	.st4{fill:#F9E39A;}
	.st5{opacity:0.34;}
	.st6{fill:#69B3C7;}
	.st7{fill:#121625;}
	.st8{fill:#69B3B2;}
	.st9{fill:#F8F3DC;}
	.st10{fill:#EAE4CA;}
	.st11{fill:#FFFFFF;}
	.st12{fill:#FA3757;}
	.st13{fill:#549B97;}
	.st14{fill:#E02F52;}
	.st15{fill:#DD264A;}
	.st16{fill:#FFCA30;}
	.st17{fill:#EDEDED;}
	.st18{opacity:0.2;}
	.st19{opacity:0.6;}
	.st20{fill:#CFB0A4;}
</style>
<g>
	<defs>
		<circle id="SVGID_1_" cx="415.8" cy="405.2" r="404.4"/>
	</defs>
	<clipPath id="SVGID_2_">
		<use xlink:href="#SVGID_1_"  style="overflow:visible;"/>
	</clipPath>
	<g class="st0">
		
		<g>
			<g class="st5">
				<path class="st6" d="M290,567.4c-51.5-92.4-55.4-111.5-78.2-160.1c-32.1-68.5-41.6-106.3-35.5-174.2
					C182.5,164.3,237,58.5,434,55.3c288.5-4.7,243.1,251.1,236.3,277c-37.6,141.6-105.5,234.4-114,234.4
					C465.7,566.6,403.9,566.6,290,567.4z"/>
				<g>
					<path class="st7" d="M292.6,565.9c-17.3-31.1-34.2-62.4-49.1-94.7c-9.4-20.4-18-41.3-27.4-61.7
						c-16.9-36.5-33.1-73.7-37.2-114.1c-2.1-20.4-1.5-41,0.3-61.4c0.7-8.4,2.1-16.5,4.1-25c4.6-19,12.5-37,23.2-53.4
						c12.8-19.6,29.7-36.4,48.9-49.7c24.8-17.1,53.1-28.6,82.2-36c38.1-9.6,77.9-12.8,117.1-11.6c31.3,0.9,62.7,5.2,92.3,15.4
						c22.6,7.8,44.1,19.2,62.3,34.8c15.6,13.3,28.5,29.4,38.3,47.4c9.1,16.5,15.4,34.3,19.6,52.7c3.9,16.9,5.8,33.5,6.3,50.9
						c0.5,14.2-0.1,28.4-1.5,42.5c-0.3,2.8-0.6,5.7-1,8.5c-0.1,0.5,0.1-0.5,0,0.2c0,0.3-0.1,0.7-0.1,1c-0.1,0.7-0.2,1.3-0.3,2
						c-0.2,1.1-0.3,2.3-0.5,3.4c-0.6,3.6-1.2,7.3-2,10.9c-2.8,12.5-6.7,24.8-10.5,36.9c-6.5,20.7-13.9,41.1-22.1,61.1
						c-13,31.7-28,62.7-45.7,92c-5.9,9.8-12.1,19.5-18.9,28.7c-3.8,5.2-7.8,10.6-12.8,15.1c-0.3,0.3-0.7,0.6-1.1,0.9
						c-0.6,0.5,0.6-0.4,0,0c-0.2,0.1-0.3,0.2-0.5,0.3c-0.3,0.2-0.5,0.3-0.8,0.5c-0.3,0.2,0.7-0.5-0.1,0c0.5-0.4,1,0-0.2-0.1
						c-1.3,0-2.7,0-4,0c-2.7,0-5.3,0-8,0c-4.8,0-9.6,0-14.4,0c-18.6,0-37.2,0-55.8,0c-38.4,0-76.8,0.1-115.2,0.3
						c-22.7,0.1-45.4,0.3-68,0.4c-3.9,0-3.9,6,0,6c43.8-0.3,87.7-0.5,131.5-0.7c37.5-0.1,75-0.1,112.6-0.1c5,0,10,0,15,0
						c2.7,0,6,0.6,8.7-0.2c1.9-0.6,3.5-2.1,5-3.4c5.2-4.8,9.4-10.6,13.6-16.3c16.2-22.1,29.7-46.2,41.9-70.7
						c18.4-36.8,33.7-75.3,46-114.6c4.8-15.3,9.5-30.6,12-46.5c1.9-12.2,3.1-24.6,3.6-37c0.6-16.3,0-32.6-2.1-48.8
						c-2.4-18.5-6.5-36.8-13.1-54.3c-7.2-18.9-17.1-36.7-29.9-52.4c-14.3-17.4-32-31.8-51.7-42.6c-24.4-13.4-51.4-21.6-78.7-26
						c-37.5-6.1-76.2-6.1-113.9-2.1c-35.1,3.7-69.9,11.5-102.2,26c-24.3,11-47,26-65.5,45.3c-15.1,15.7-27.3,34-35.8,54
						c-7.3,17.1-11.8,35.2-13.4,53.8c-1.8,20.6-2.4,41.5-0.2,62.1c2,18.8,6.3,37.2,12.4,55.1c10.7,31.7,26.1,61.6,39.4,92.2
						c10.3,23.8,21.2,47.3,33,70.4c9.5,18.5,19.5,36.8,29.6,55C289.3,572.3,294.5,569.3,292.6,565.9z"/>
				</g>
			</g>
			<g>
				<path class="st8" d="M115,441.6c37.6-11.3,61.3,11.5,75.3,42.6c14.1,31.1,14.2,62.6,13,97.1c-1.2,34.6-14.9,97.5,33.5,98.8
					c19.7,0.5,35.2-34.8,43.3-57.8c41.1-116.8-44.9-163.9-42.8-285.6c0.9-50.3,14.3-181.6,172.2-203.6
					c67.2-9.4,232.3,28.3,212.5,208.8c-12.9,117.7-63.5,138.4-66.2,218.1c-1.6,48.9,3.5,51.3,10.7,82.3c4,17.5,45.1,84.2,92.2,4.7
					c30.8-52-6.4-65-9.6-111.3c-3.6-52,75.9-69,88.3-39.5c18.2,43.3-55.6,27.8-37.8,70.7c17,40.8,9.2,78.2-19.3,115.6
					c-21.1,27.8-54.7,56-89.2,44.6c-54.9-18.1-46.4-81.4-85.7-87.9c8.3,42.1,20,100.4-16.8,96.8c-31.5-1.2-14.5-22.8-18.8-52.6
					c-0.8-5.4-1.7-12.7-5-16.8c-10.1-12.4-29.8-5.6-32,10.8c-2.2,16.4,3.8,33,1.7,49.4c-2.1,16.4-44.8,20.9-38.6-10.9
					c5.6-35.9,0.1-50.1-15.3-48.6c-21.9,5.5-22.8,16.4-19.8,42.8c5.3,46.8-50.1,40.7-44.5,5.9c1.1-41,7.7-37.1,8.8-78
					c-14.9,34.3-38.4,67.4-70.2,83c-8.7,4.3-52,12.4-73.5-19.1c-26.2-38.4-20.7-84.7-20.3-133.7c0.8-103.9-59.8-53.8-71.2-80.1
					C77.6,470.5,95.7,447.6,115,441.6z"/>
				<g>
					<path class="st7" d="M115.8,444.5c12.2-3.6,25.2-4.1,37,1.1c10.4,4.7,18.8,13,25.2,22.4c17.2,25.2,22.4,55.9,22.8,85.9
						c0.2,13-0.2,26-1.1,38.9c-0.7,9.6-1.6,19.3-1.9,28.9c-0.5,17.1,0,38.2,12.9,51.2c6.5,6.6,15.5,9.6,24.7,10.1
						c10.4,0.6,18.6-6.1,24.8-13.9c7.7-9.8,13.1-21.2,17.8-32.6c5.1-12.5,9.4-25.4,12.3-38.6c5-23,5.3-46.6,0.7-69.8
						c-4.2-21.4-12.3-41.8-20.4-62c-8.6-21.3-17.1-42.7-22.7-65.1c-5.7-22.9-8.1-46.3-7.3-69.9c0.9-26.8,5.3-53.6,14.6-78.8
						c12.3-33.6,34-63.2,63.8-83.4c19-12.8,40.3-21.7,62.4-27.3c16.5-4.2,32.9-6.9,49.9-6.8c29.1,0.2,58.7,6.5,85.4,18
						c31.4,13.4,59.5,34.8,78,63.7c23.9,37.4,29.1,82.7,24.3,126c-3,27.4-8.9,54.4-18.4,80.3c-6.9,18.8-16,36.6-24.7,54.5
						c-8,16.5-15.2,33.3-19.1,51.2c-2.2,10.1-3.5,20.4-3.8,30.7c-0.5,13.1-0.7,26.4,0.7,39.4c0.9,8,2.6,15.8,4.7,23.6
						c2.1,7.8,3.6,16,6.2,23.6c4.3,12.7,13,24.9,23.5,33.1c6.1,4.7,13,8.2,20.7,9c8.6,0.9,17.2-1.9,24.3-6.6
						c11.3-7.5,19.7-18.7,26.7-30.1c7-11.4,13-24,14-37.6c1.5-20.3-10.7-37.2-17-55.7c-3.5-10.3-6.1-22-4.1-32.8
						c1.5-8.4,5.6-16,11.5-22.1c11.4-11.7,28.5-18.3,44.8-18.2c6.7,0,13.7,1.2,19.4,5c5.5,3.7,8.3,10.3,9,16.8
						c1.3,13.7-13.2,19-23.2,24.1c-5.5,2.8-11.2,5.9-15.2,10.7c-4.5,5.3-5.6,11.9-4.4,18.7c1,5.6,3.7,10.7,5.5,16.1
						c2.4,7.1,4.2,14.4,5,21.8c1.7,14.5-0.1,29.1-4.9,43c-5.1,14.9-13.4,28.6-23.1,41.1c-9,11.6-19.5,22.5-31.6,31
						c-11.7,8.1-25.4,14.2-39.9,13.7c-12.2-0.4-24.5-5.8-34.1-13.3c-15.2-12-23-29.8-31.8-46.6c-7.3-14-16.8-27.6-33.4-30.5
						c-2.3-0.4-4.2,1.3-3.7,3.7c2.5,12.8,5.1,25.6,6.8,38.5c1.5,11.3,2.6,23.1,1,34.4c-1.1,7.5-3.9,16.3-11.8,19.2
						c-4.6,1.7-10.1,1.2-14.9,0.5c-3.8-0.6-8.2-1.7-10.1-5.4c-1.7-3.2-1.5-7.1-1.4-10.5c0.2-5.3,1-10.6,1.3-15.9
						c0.4-6.4,0.1-12.7-0.8-19.1c-0.9-6.5-2-13.5-6.7-18.5c-8-8.3-21.1-7.6-29.2,0.1c-11.3,10.8-7,29.3-5.5,43
						c0.5,4.4,0.9,8.8,0.9,13.3c0,2.8,0.2,6.1-0.9,8.7c-1.1,2.7-3.7,4.5-6.2,5.8c-6.1,3-14.4,3.5-20.4,0c-9.3-5.6-5.5-17.5-4.5-26.1
						c1.3-10.9,2.6-23.8-2.1-34.1c-8.1-17.5-34.3-8.4-39.6,6.7c-3.8,10.8-0.6,22.6-0.1,33.6c0.3,8.3-1.5,17.7-8.6,23
						c-11.3,8.3-27.8,1.2-30.3-12.3c-0.3-1.9-0.4-3.9-0.3-5.8c0.2-3.7,0.5-7.5,0.7-11.2c0.3-6.3,0.9-12.6,1.8-18.8
						c1.5-9.7,4-19.3,5.1-29c0.9-7.3,1.3-14.6,1.5-22c0.1-2.8-4.4-4.3-5.6-1.5c-9.4,21.5-21.6,42.1-38.1,59
						c-7.9,8.1-16.8,15.2-26.7,20.7c-4.8,2.6-9.2,4.1-15.1,5.1c-15.3,2.5-32.2,0.6-45.4-7.9c-9-5.8-15-14.5-19.8-23.9
						c-5.4-10.4-8.9-21.7-11-33.2c-4.4-24.1-3.2-49-2.7-73.3c0.4-19.9,1.3-41.1-5.5-60.2c-3.6-10-9.7-19.3-19.6-23.9
						c-7.8-3.6-16.3-4.1-24.8-4.4c-3.4-0.1-7.8-0.2-10.5-0.7c-1.6-0.3-3.2-0.6-4.7-1.2c-0.6-0.2-2.7-1.3-3-1.6
						c-1.4-1.1-1.9-1.8-2.6-3.1c-1.9-3.5-3.9-6.7-4.2-10.8c-0.8-9.9,6-19.1,13.3-25.1C106.3,448.6,110.9,446.1,115.8,444.5
						c3.7-1.2,2.1-7-1.6-5.8c-17.7,5.8-37.9,26.1-29.4,46.2c1.8,4.2,4.4,8.8,8.3,11.5c2.9,1.9,6.3,2.8,9.7,3.3
						c8,1.1,16.5,0.4,24.2,1.7c9.3,1.6,16.9,6.3,21.8,14.6c9.2,15.5,9.5,35.8,9.3,53.3c-0.2,25.8-2.1,51.8,1,77.5
						c1.4,11.8,3.9,23.5,8.3,34.6c4.2,10.8,9.9,21.8,18.1,30c12.7,12.6,30.9,17.4,48.3,16.7c6.2-0.3,12.6-1.1,18.6-2.9
						c8.3-2.6,15.9-8.1,22.7-13.3c19.1-14.8,33.7-34.8,44.9-56c2.8-5.4,5.4-10.8,7.8-16.4c-1.9-0.5-3.7-1-5.6-1.5
						c-0.4,12.8-1.6,25.4-4.2,37.9c-2.5,12.1-4,24.1-4.4,36.4c-0.2,5.1-0.9,10,0.2,15.1c0.9,3.8,2.7,7.3,5.2,10.3
						c4.7,5.7,12,8.9,19.4,9c7.4,0.1,14.6-3.2,19.3-9c6.8-8.4,7.2-19.3,6.1-29.5c-1-9.1-3.6-22.5,2.9-30.4c3.1-3.8,7.9-5.6,12.5-7
						c3.2-0.9,7-0.9,9.8,1.1c7.4,5.1,6.4,18.5,6,26.1c-0.4,7.5-2.1,14.8-2.5,22.3c-0.3,4.5,0.5,9.2,3,13c8.2,13,32,12.2,40.2-0.5
						c3.3-5.1,2.7-12.2,2.4-18c-0.5-9.3-2.3-18.5-2.5-27.8c-0.2-7,0.2-14.3,5.5-19.4c3.9-3.7,9.6-5.4,14.8-3.8
						c6.9,2.1,9.2,8.4,10.3,14.9c1.2,6.6,1.7,13.1,1.4,19.8c-0.2,5.6-0.9,11.1-1.3,16.7c-0.3,4.2-0.4,8.7,1,12.7
						c3.5,9.8,15,11.1,24.1,11.3c9.1,0.1,17-4.3,21.1-12.5c4.6-9.4,4.9-20.7,4.5-31c-0.6-12.9-2.6-25.7-4.9-38.3
						c-1.1-6.3-2.4-12.6-3.6-18.9c-1.2,1.2-2.5,2.5-3.7,3.7c17.4,3,25.4,19,32.7,33.3c8.9,17.6,18.4,35,35.3,46.2
						c10.5,6.9,23.1,11.4,35.8,11.1c14.1-0.3,27.5-6.1,39.1-14c12.4-8.4,23.1-19.2,32.5-30.9c9.6-12.1,17.9-25.1,23.7-39.4
						c5.4-13.4,8.3-27.9,7.9-42.3c-0.2-7.1-1.2-14.2-2.8-21.1c-1.7-7.2-4.5-14-7-21c-2.1-6-3-12.6,1.1-18c3.7-4.9,9.8-7.8,15.1-10.4
						c11.1-5.5,24.8-11.7,25.5-25.9c0.3-7.3-2.4-15.7-7.5-21.1c-4.5-4.9-11.1-7.6-17.5-8.7c-33.5-6.1-74.2,18.6-72.2,55.3
						c0.6,11.4,3.7,22.5,8.1,33c3.8,9.1,8.6,17.9,11.4,27.4c3,10.2,2.8,20.4-0.4,30.6c-4.5,14.4-13.4,28.5-23.5,39.7
						c-6.8,7.5-15.4,14.7-25.7,16.2c-7.3,1.1-14.4-1-20.6-4.9c-11.2-7-20.4-19.5-24.9-31.8c-2.7-7.3-4-15.3-6.1-22.9
						c-2.1-7.8-4.1-15.6-4.9-23.7c-1.4-12.9-1.2-26-0.7-39c0.4-10.4,1.6-20.7,3.9-30.9c4.1-17.9,11.5-34.6,19.5-51.1
						c9-18.4,18-36.7,25-56c9.5-26.3,15.1-53.9,17.9-81.7c2.4-23.8,1.9-48-3.1-71.5c-7.9-37-27.9-70.4-57.5-94.1
						c-25.7-20.6-56.7-33.9-88.8-40.7c-13.8-2.9-27.9-4.6-42-4.9c-16.2-0.3-32.1,2-47.9,5.5c-42,9.5-81.2,30.5-108.1,64.6
						c-20.3,25.8-32.7,56.9-38.7,89c-6.3,33.4-6.7,68.2-0.1,101.6c4.6,23.4,12.7,45.7,21.5,67.8c8.1,20.3,16.7,40.6,22.1,61.8
						c5.8,22.7,7.2,46.2,3.2,69.3c-2.3,13.4-6.2,26.4-10.9,39.1c-4.5,12-9.8,24-17.1,34.5c-3.1,4.4-6.6,8.7-11.1,11.7
						c-4.1,2.7-8.1,3.5-12.9,3.1c-8.6-0.7-16.8-4.5-21.8-11.7c-5-7.2-6.9-16.1-7.7-24.7c-0.9-9.8-0.6-19.6,0.1-29.4
						c1.6-25.1,3.8-50.1,1.7-75.3c-2.3-28.2-10.5-57.8-29.5-79.5c-7.1-8.2-16.2-14.8-26.6-18.2c-11.6-3.7-24.1-2.9-35.7,0.5
						C110.5,439.8,112.1,445.6,115.8,444.5z"/>
				</g>
			</g>
			<g>
				<path class="st9" d="M356.1,260.7c-6.7,23.8-1.4,59.6,10.3,78c11.7,18.4,30.4,27.4,52.2,31c28.4,4.7,59.6,1.6,79.1-21.3
					c20.3-24,22.1-53.9,12.8-84.9c-9.8-32.8-25-52.4-62.2-59C420.5,199.6,367.4,207.6,356.1,260.7z"/>
				<g>
					<path class="st7" d="M353.2,259.9c-2.6,9.3-3.3,19.2-3,28.8c0.3,10,1.8,20.1,4.4,29.7c2.4,8.7,5.8,17.3,11,24.7
						c5.7,7.9,13,14.5,21.5,19.3c8.6,4.8,18.1,7.9,27.7,9.7c9.8,1.9,20,2.8,30,2.4c19.8-0.8,39.7-7.3,53.3-22.3
						c7.3-8,12.8-17.4,16.3-27.6c3.4-10,4.6-20.7,4.2-31.2c-0.5-11-2.6-21.9-5.9-32.4c-2.5-8.2-5.6-16.2-9.7-23.7
						c-3.7-6.6-8.3-12.8-14-17.8c-6.1-5.5-13.2-9.6-20.8-12.6c-13.1-5.2-27.4-7.3-41.5-6.4c-13.8,0.9-27.7,4.5-39.7,11.5
						c-13.8,8-24.3,20.3-30.1,35.1C355.4,251.2,354.1,255.5,353.2,259.9c-0.3,1.6,0.5,3.2,2.1,3.7c1.5,0.4,3.3-0.5,3.7-2.1
						c3.3-15.6,10.8-29.1,23.3-39c0.2-0.1,0.4-0.3,0.5-0.4c-0.1,0.1-0.4,0.3,0,0c0.4-0.3,0.7-0.5,1.1-0.8c0.7-0.5,1.5-1.1,2.2-1.6
						c1.4-0.9,2.9-1.8,4.3-2.7c1.5-0.8,3-1.6,4.5-2.4c0.8-0.4,1.5-0.7,2.3-1.1c0.4-0.2,0.7-0.3,1.1-0.5c-0.5,0.2,0,0,0.1-0.1
						c0.2-0.1,0.5-0.2,0.7-0.3c6.2-2.5,12.6-4.2,19.1-5.3c0.7-0.1,1.5-0.2,2.2-0.3c0.6-0.1,0,0-0.1,0c0.2,0,0.4-0.1,0.6-0.1
						c0.4-0.1,0.9-0.1,1.3-0.2c1.5-0.2,3-0.3,4.6-0.4c3-0.2,6-0.3,9-0.2c2.7,0.1,5.4,0.3,8,0.6c0.3,0,0.7,0.1,1,0.1
						c0.5,0.1-0.1,0-0.2,0c0.2,0,0.4,0.1,0.6,0.1c0.6,0.1,1.3,0.2,1.9,0.3c2.2,0.4,4.5,0.8,6.7,1.4c8.2,1.9,15.4,4.5,22.5,8.8
						c1.6,0.9,3.1,1.9,4.5,3c0.2,0.1,1.1,0.8,0.7,0.6c0.3,0.3,0.7,0.5,1,0.8c0.7,0.6,1.4,1.2,2.1,1.8c2.7,2.4,5.1,5,7.3,7.8
						c0.6,0.7-0.2-0.3,0.1,0.2c0.1,0.2,0.3,0.4,0.4,0.6c0.3,0.3,0.5,0.7,0.7,1c0.6,0.8,1.1,1.5,1.6,2.3c1,1.6,2,3.2,2.9,4.8
						c0.9,1.6,1.8,3.3,2.6,5c0.4,0.8,0.8,1.7,1.1,2.5c0.2,0.5,0.4,0.9,0.6,1.4c0.1,0.3,0.2,0.5,0.4,1c3.6,8.8,6.3,17.9,8.1,27.2
						c3.8,19.7,2.4,40.5-7.9,58.1c-4.9,8.5-11.5,16.1-19.6,21.5c-7.7,5.1-16.2,8.2-25.3,9.9c-9,1.7-18.6,1.9-28,1.1
						c-9.3-0.8-18.7-2.5-27.7-5.6c-8.3-2.9-16.4-7.3-22.9-13.1c-6.5-5.8-11.5-12.9-14.9-20.9c-0.2-0.5-0.7-1.7-1-2.5
						c-0.4-1.1-0.8-2.1-1.2-3.2c-0.7-2.2-1.4-4.4-2-6.6c-1.2-4.6-2.2-9.2-2.8-13.8c-1.4-9.2-1.7-19.1-0.7-28.6
						c0.4-3.9,1.2-8.2,2.3-12.2C360,257.7,354.2,256.2,353.2,259.9z"/>
				</g>
			</g>
			<g>
				<path class="st10" d="M369.3,338.4c0,0,12.7,23.5,49.3,29.7c20.4,3.5,54.2,3.5,77.6-21.3c13.6-14.4,23.6-45,12.3-82.5
					C508.5,264.3,514.7,403.4,369.3,338.4z"/>
			</g>
			<g>
				<g>
					<path class="st1" d="M338.2,392.7c74.3,42,164.9,16.9,196.8,3.4c10.1-4.3,7.9,73.6-23.6,98.6c-30.2,24-68.9,32.8-105.9,24.7
						c-36.7-8-65.2-27.5-75.2-71.3C327.4,435.5,326.7,387.3,338.2,392.7z"/>
					<g>
						<path class="st7" d="M336.7,395.3c23.3,13.1,49.3,20.3,75.8,22.7c23.5,2.1,47.3,0.5,70.5-3.8c16.9-3.1,33.8-7.6,49.8-14
							c0.7-0.3,1.4-0.6,2-0.8c0.5-0.2,1-0.4,1.5-0.6c-1,0.4-0.4,0.2-0.1,0.1c0.3-0.1-1,0.1-0.5,0.1c0.6,0-0.9-0.2-0.4-0.1
							c0.3,0.1,0.7,0.3-0.3-0.2c0.1,0.1,0.2,0.1,0.4,0.2c-0.9-0.7-0.5-0.4-0.3-0.2c0.4,0.4-0.1,0.3-0.1-0.2c0,0.2,0.4,0.6,0.5,0.8
							c0.1,0.2,0.1,0.3,0.2,0.5c0.2,0.4-0.3-0.8-0.1-0.4c0,0.1,0.1,0.2,0.1,0.3c0.2,0.5,0.3,0.9,0.4,1.4c0.3,1.1,0.5,2.1,0.7,3.2
							c0,0.3,0.2,1.4,0,0.3c0,0.3,0.1,0.6,0.1,1c0.1,0.7,0.1,1.4,0.2,2.1c0.3,3.3,0.3,6.6,0.2,9.9c-0.1,3.9-0.4,7.9-0.9,11.8
							c-0.1,0.5-0.1,1-0.2,1.5c0,0.3-0.1,0.5-0.1,0.8c0,0.1-0.1,1,0,0.2c-0.1,1-0.3,2.1-0.5,3.1c-0.3,2.2-0.7,4.5-1.2,6.7
							c-0.9,4.4-1.9,8.7-3.2,13c-0.7,2.2-1.4,4.5-2.2,6.7c-0.3,1-0.7,1.9-1.1,2.9c-0.2,0.5-0.4,1-0.6,1.6c-0.1,0.3-0.2,0.5-0.3,0.8
							c0,0.1-0.5,1.1-0.2,0.6c-1.7,4.1-3.7,8-6,11.8c-1.1,1.8-2.2,3.5-3.5,5.1c-0.1,0.1-0.6,0.7-0.1,0.2c-0.2,0.2-0.3,0.4-0.5,0.6
							c-0.3,0.4-0.6,0.8-1,1.2c-0.7,0.8-1.4,1.6-2.2,2.4c-3.5,3.7-7.7,6.7-12,9.6c-5.6,3.8-11.5,7.1-17.6,10
							c-23.8,11-51,14.1-76.6,8.8c-10-2.1-20-5.2-28.8-9.5c-4.4-2.2-8.7-4.7-12.7-7.5c-2.1-1.5-3.4-2.5-5.4-4.2
							c-1.9-1.6-3.7-3.3-5.4-5.1c-6.9-7.2-12.6-16-16.4-25.3c-2.3-5.6-4.1-11.3-5.4-17.2c-0.3-1.4-0.6-2.7-0.8-4.1
							c0-0.2-0.1-0.8,0,0.1c0-0.2,0-0.4-0.1-0.6c0-0.4-0.1-0.8-0.1-1.2c-0.1-0.9-0.2-1.8-0.3-2.7c-0.7-8.3-0.8-16.6-0.3-24.9
							c0.1-2.1,0.3-4.2,0.6-6.4c0-0.2,0.2-1.4,0.1-0.6c0.1-0.5,0.1-0.9,0.2-1.4c0.1-1,0.3-1.9,0.5-2.9c0.3-1.5,0.7-3.1,1.2-4.6
							c0.1-0.3,0.2-0.7,0.4-1c0.1-0.2,0.4-0.7-0.1,0.1c0.1-0.1,0.1-0.3,0.2-0.4c0.3-0.6,0.6-1.1,0.9-1.6c0.4-0.6-0.5,0.5,0.1-0.1
							c0.1-0.1,0.3-0.3,0.4-0.4c0.5-0.6-0.5,0.2,0,0c0.1,0,0.2-0.1,0.3-0.2c0.4-0.3,0,0.4-0.3,0.1
							C336.2,395.3,336.7,395.2,336.7,395.3c-0.2,0.4-0.8-0.1-0.3,0C336.4,395.3,336.6,395.3,336.7,395.3
							C337.3,395.2,335.8,395.1,336.7,395.3c0,0,0.1,0.1,0.3,0.1C337.4,395.4,336.2,395,336.7,395.3c1.5,0.7,3.2,0.4,4.1-1.1
							c0.8-1.3,0.4-3.4-1.1-4.1c-2.8-1.3-5.9-1-8,1.4c-2.1,2.3-3.1,5.4-3.9,8.3c-2.1,8.2-2.3,17-2.3,25.4c0,7.6,0.2,15.4,1.7,22.8
							c2.2,11.1,6.4,22.2,12.3,31.9c5.5,9.1,12.6,17,21,23.4c8.1,6.2,17.3,10.8,26.9,14.2c24.4,8.7,51.1,10.3,76.3,4
							c13.4-3.3,26.2-8.9,37.9-16.2c5.1-3.3,10.4-6.8,14.8-11c3.2-3,5.9-6.4,8.3-10.1c5.1-7.6,8.7-16.2,11.5-24.9
							c2.8-8.9,4.7-18.1,5.9-27.4c1-7.5,1.5-15.2,1.1-22.8c-0.2-2.9-0.4-5.8-1.1-8.6c-0.5-2.1-1.2-4.2-2.6-5.8
							c-1.4-1.5-3.4-2.2-5.4-1.5c-0.2,0.1-0.5,0.2-0.7,0.3c0.5-0.2,0.5-0.2,0.2-0.1c-0.2,0.1-0.3,0.1-0.5,0.2
							c-0.3,0.1-0.7,0.3-1,0.4c-0.8,0.3-1.5,0.6-2.3,0.9c-1.6,0.6-3.2,1.2-4.9,1.8c-8,2.9-16.1,5.3-24.3,7.4
							c-21.9,5.6-43.9,8.6-66.6,8.7c-26.2,0.1-52.4-4.1-76.7-14.1c-6.1-2.5-12-5.4-17.8-8.7C336.3,388.2,333.3,393.4,336.7,395.3z"
							/>
					</g>
				</g>
				<g>
					<path class="st11" d="M365.5,406.4c-1.6,9.1-5.9,18.4-2.3,26.3c3.7,7.8,13.7,13.7,21.4,10.8c8.6-3.3,11.2-18.7,12.5-28.5"/>
					<g>
						<path class="st7" d="M362.6,405.6c-1.3,7.2-4.4,14.5-3.7,21.9c0.6,6.8,4.8,12.5,10.4,16.1c5.1,3.3,11.8,4.7,17.4,2
							c4.8-2.3,7.6-7.5,9.4-12.3c2.1-5.7,3.1-11.8,3.9-17.7c0.2-1.6-0.4-3.2-2.1-3.7c-1.4-0.4-3.5,0.5-3.7,2.1
							c-0.7,4.9-1.4,9.7-2.8,14.5c-0.7,2.4-1.4,4.2-2.4,6.2c-1.1,2.2-1.9,3.2-3.6,4.8c-0.6,0.5,0.5-0.3-0.2,0.2
							c-0.2,0.1-0.4,0.2-0.5,0.4c-0.2,0.1-0.4,0.2-0.6,0.3c-0.1,0-0.9,0.4-0.2,0.1c-1.3,0.5-2.2,0.6-3.2,0.7c-2.1,0-4.2-0.5-6.2-1.5
							c-4.5-2.2-8.5-6.2-9.4-11.4c-0.6-3.2,0-6.6,0.7-9.7c0.8-3.8,2-7.6,2.7-11.4c0.3-1.6-0.4-3.2-2.1-3.7
							C364.8,403.1,362.9,404,362.6,405.6L362.6,405.6z"/>
					</g>
				</g>
				<g>
					<path class="st11" d="M420.7,418.1c-0.5,21.3,2.8,31.6,16.5,30.9c14.7-1,16.7-21.2,16.7-31.3"/>
					<g>
						<path class="st7" d="M417.7,418.1c-0.1,7-0.2,14.3,1.8,21c1.3,4.7,4,9.3,8.6,11.3c5.2,2.3,11.8,2.2,16.7-0.7
							c5.1-3,8-8.5,9.7-14c1.7-5.8,2.3-12,2.3-18c0-3.9-6-3.9-6,0c0,2.2-0.1,4.4-0.3,6.6c0,0.6-0.1,1.1-0.2,1.7
							c0,0.3-0.1,0.6-0.1,0.9c0,0.4,0-0.1,0-0.1c0,0.2-0.1,0.4-0.1,0.7c-0.2,1.3-0.4,2.5-0.7,3.8c-0.3,1.3-0.6,2.6-1.1,3.9
							c-0.2,0.6-0.4,1.1-0.6,1.7c0,0.1-0.1,0.3-0.2,0.4c0.2-0.5,0-0.1,0,0c-0.2,0.3-0.3,0.6-0.5,1c-0.5,1.1-1.2,2.1-1.9,3.1
							c-0.3,0.4,0.2-0.2-0.2,0.3c-0.2,0.2-0.4,0.5-0.6,0.7c-0.4,0.4-0.8,0.8-1.3,1.2c-0.1,0.1-0.3,0.2-0.4,0.3c0,0,0.4-0.3,0.1-0.1
							c-0.2,0.2-0.5,0.3-0.7,0.5c-0.5,0.3-1,0.6-1.6,0.9c-0.4,0.2,0.3-0.1-0.4,0.1c-0.3,0.1-0.6,0.2-0.9,0.3
							c-0.3,0.1-0.6,0.2-0.9,0.2c-0.2,0-1,0.2-0.8,0.2c0.3,0-0.1,0-0.2,0c-0.2,0-0.4,0-0.6,0c-0.3,0-0.5,0-0.8,0
							c-0.6,0-1.2,0-1.9-0.1c-0.3,0-0.5-0.1-0.8-0.1c0.6,0.1,0.1,0-0.2-0.1c-0.5-0.1-1-0.2-1.5-0.4c-0.2-0.1-0.5-0.2-0.7-0.2
							c-0.1,0-0.3-0.1-0.4-0.1c0,0,0.5,0.2,0.3,0.1c-0.4-0.2-0.9-0.4-1.3-0.7c-0.2-0.1-0.3-0.2-0.5-0.3c-0.4-0.3,0.4,0.4-0.1-0.1
							c-0.4-0.3-0.7-0.7-1.1-1c-0.2-0.2-0.3-0.4-0.5-0.5c-0.1-0.1,0.3,0.4,0-0.1c-0.3-0.4-0.6-0.9-0.8-1.4c-0.3-0.5-0.5-0.9-0.7-1.4
							c0.2,0.5,0,0.1-0.1-0.2c-0.1-0.3-0.2-0.6-0.3-0.9c-0.4-1.3-0.8-2.7-1-4.1c-0.1-0.4-0.1-0.8-0.2-1.1c0-0.2-0.2-1.2-0.1-0.7
							c-0.1-0.8-0.2-1.7-0.3-2.5c-0.3-4-0.4-8-0.3-12C423.8,414.2,417.8,414.2,417.7,418.1L417.7,418.1z"/>
					</g>
				</g>
				<g>
					<path class="st11" d="M479.3,413.8c0,14.2,0,28.4,15.4,28.4c16.4,0,16.4-21.7,16.4-35.8"/>
					<g>
						<path class="st7" d="M476.3,413.8c0,11.1-0.4,27.8,13.3,30.9c5.9,1.3,12.4,0.3,16.8-4c3.9-3.9,5.7-9.5,6.6-14.8
							c1.1-6.4,1.2-13,1.2-19.5c0-3.9-6-3.9-6,0c0,5.1,0,10.3-0.6,15.4c0,0.3-0.1,0.7-0.1,1c0,0.4,0,0,0-0.1c0,0.2-0.1,0.4-0.1,0.6
							c-0.1,0.7-0.2,1.3-0.3,2c-0.2,1.2-0.5,2.5-0.9,3.7c-0.2,0.6-0.3,1.1-0.5,1.7c-0.1,0.2-0.2,0.5-0.3,0.7c0,0.1-0.1,0.2-0.1,0.4
							c-0.1,0.3,0.2-0.4-0.1,0.1c-0.5,1-1,2-1.6,3c-0.1,0.2-0.3,0.4-0.4,0.6c-0.3,0.4,0.3-0.4,0,0c-0.1,0.1-0.1,0.2-0.2,0.3
							c-0.4,0.4-0.7,0.8-1.2,1.2c-0.2,0.2-0.4,0.3-0.5,0.5c0.5-0.4-0.1,0.1-0.2,0.2c-0.5,0.3-0.9,0.6-1.4,0.8
							c-0.6,0.3,0.2,0-0.3,0.1c-0.2,0.1-0.5,0.2-0.7,0.2c-0.6,0.2-1.2,0.3-1.8,0.4c-0.5,0.1,0.3,0-0.4,0.1c-0.3,0-0.6,0-0.9,0.1
							c-0.8,0-1.6,0-2.3,0c-0.8-0.1-0.8,0-1.6-0.2c-0.7-0.1-1.3-0.3-2-0.5c-0.2-0.1-0.3-0.1-0.5-0.2c0,0,0.4,0.2,0.1,0
							c-0.2-0.1-0.5-0.2-0.7-0.4c-0.3-0.1-0.5-0.3-0.8-0.5c-0.1-0.1-0.2-0.1-0.3-0.2c-0.4-0.2,0.3,0.3,0,0c-0.4-0.4-0.8-0.7-1.2-1.1
							c-0.1-0.1-0.6-0.7-0.4-0.5c0.2,0.2-0.3-0.4-0.3-0.5c-0.3-0.5-0.6-1-0.9-1.6c-0.1-0.2-0.3-0.7-0.1-0.2c-0.1-0.3-0.3-0.7-0.4-1
							c-0.5-1.3-0.8-2.7-1-4.1c-0.1-0.4-0.1-0.8-0.2-1.2c0.1,0.5,0-0.4-0.1-0.6c-0.1-0.8-0.2-1.6-0.2-2.3c-0.2-3.4-0.2-6.8-0.2-10.3
							C482.3,410,476.3,410,476.3,413.8L476.3,413.8z"/>
					</g>
				</g>
				<g>
					<path class="st12" d="M518.9,486.1c8.2-9.8-55.8-4-68.1-4.4c-46-1.8-55.2,0.8-98.8,9.9c0,0,52.1,53.6,134,18.5
						C497.8,505.2,511,495.7,518.9,486.1z"/>
					<g>
						<path class="st7" d="M521,488.2c1.1-1.4,1.9-3,1.4-4.9c-0.4-1.5-1.6-2.6-2.9-3.3c-3.3-1.7-7.2-2-10.8-2.3
							c-10.8-0.9-21.6-0.4-32.4,0.1c-5.2,0.2-10.3,0.5-15.5,0.7c-3.5,0.1-7,0.3-10.5,0.2c-15.9-0.6-31.9-1-47.8,0.7
							c-14.8,1.6-29.4,4.8-44,7.9c-2.4,0.5-4.9,1-7.3,1.5c-2.3,0.5-2.8,3.5-1.3,5c2.6,2.6,5.5,4.9,8.5,7.1c7,5.3,14.7,9.8,22.7,13.4
							c11.7,5.2,24.1,8.6,36.9,10.1c16,1.8,32.3,0.2,47.9-3.9c9.3-2.5,18.6-5.8,27.2-10.2c8.5-4.5,16.6-10.2,23.4-17
							C518.1,491.6,519.6,490,521,488.2c1-1.2,1.2-3,0-4.2c-1.1-1.1-3.2-1.2-4.2,0c-5.9,7.1-13.2,12.9-21.1,17.7
							c-8,4.9-16.6,8.3-25.5,11.1c-15.4,4.8-31.2,7-47.3,5.9c-6.7-0.5-12.6-1.4-19.3-3.1c-5.7-1.4-11.3-3.2-16.7-5.5
							c-0.2-0.1-1-0.4-0.4-0.2c-0.3-0.1-0.6-0.3-0.9-0.4c-0.7-0.3-1.3-0.6-2-0.9c-1.2-0.5-2.3-1.1-3.5-1.7c-2.2-1.1-4.3-2.2-6.4-3.4
							c-3.5-2-7-4.2-10.3-6.6c-0.7-0.5-1.3-1-2-1.5c-0.2-0.1-0.3-0.2-0.5-0.3c-0.1-0.1-0.7-0.5-0.2-0.1c0.5,0.4-0.1-0.1-0.2-0.1
							c-0.2-0.1-0.3-0.2-0.5-0.4c-1-0.8-1.9-1.6-2.9-2.4c-1-0.9-1.9-1.8-2.9-2.7c0,0-0.1-0.1-0.1-0.1c-0.4,1.7-0.9,3.3-1.3,5
							c8.5-1.8,16.9-3.6,25.4-5.3c3.4-0.7,6.9-1.3,10.3-1.9c1.6-0.3,3.2-0.5,4.7-0.8c0.8-0.1,1.5-0.2,2.3-0.3c0.3,0,0.7-0.1,1-0.1
							c0.2,0,0.4-0.1,0.6-0.1c0.3,0-0.4,0,0.2,0c14.2-1.8,28.6-2,42.9-1.6c5.4,0.1,10.7,0.5,16.1,0.3c4.5-0.1,9-0.4,13.5-0.5
							c10.8-0.5,21.7-1,32.5-0.7c2.3,0.1,4.5,0.2,6.8,0.4c0.5,0,1,0.1,1.5,0.1c0.2,0,0.5,0.1,0.7,0.1c0.1,0,0.2,0,0.3,0
							c0.5,0.1-0.6-0.1-0.2,0c0.8,0.1,1.6,0.2,2.5,0.4c0.7,0.1,1.4,0.3,2,0.5c0.1,0,0.3,0.1,0.4,0.2c0.6,0.2-0.2-0.1-0.2-0.1
							c0.2,0.1,0.5,0.2,0.7,0.4c0.1,0,0.2,0.1,0.2,0.2c0.4,0.2-0.6-0.5-0.3-0.2c0.6,0.6-0.2-0.4,0-0.1c0.3,0.5-0.3-0.9-0.1-0.2
							c0.1,0.4-0.1-0.9-0.1-0.5c0,0.6,0.1-0.8,0.1-0.4c-0.2,0.8,0.3-0.4,0.1-0.1c-0.1,0.1-0.1,0.2-0.1,0.3c-0.4,0.5,0.4-0.5,0.2-0.2
							c-1,1.3-1.2,3,0,4.2C517.8,489.3,520,489.5,521,488.2z"/>
					</g>
				</g>
			</g>
			<ellipse class="st7" cx="433.6" cy="295.2" rx="9.8" ry="10.6"/>
			<g>
				<path class="st13" d="M284,506.2c0,0,33.6-20.2,8.4-69.5c-7.5-14.7-28.1-28-42.2-21.1C250.2,415.6,272,478.2,284,506.2z"/>
			</g>
			<g>
				<path class="st13" d="M320.7,165.8c0,0,3.5,24.7-9,39.6c-6.5,7.8-27.2,29.7-48,24.4C263.7,229.9,280.2,191.6,320.7,165.8z"/>
			</g>
			<g>
				<path class="st13" d="M413.8,154.7c-2,8.8,6.8,18,23.8,11.9c15.9-5.7,12.8-19.3,7.1-22.4C434.1,138.6,416.6,142.6,413.8,154.7z"
					/>
			</g>
			<g>
				<path class="st13" d="M617.8,268.1c0,0-32.3,4.1-42-27c-4.3-13.8-0.5-31.2,6.2-43.8C582,197.2,613.6,232.4,617.8,268.1z"/>
			</g>
			<g>
				<path class="st13" d="M590,378c-5.2,8.9-7.4,25.4-4.3,34.2c3,8.6,14,16.8,14,16.8c8.3-18.9,19.9-65.7,19.9-65.7
					C602.2,364.7,596,369.7,590,378z"/>
			</g>
			<g>
				<path class="st13" d="M283.2,315.9c1,6,7.1,10.3,12.5,9c5.5-1.4,9.2-8.1,7.7-14s-7.9-9.6-13.2-7.8
					C285.6,304.7,281.8,310.4,283.2,315.9"/>
			</g>
			<g>
				<path class="st13" d="M512.2,182.3c0.4,5.6,5.2,7.5,8,7.6c3.9,0.1,8.8-2,10.3-6c1.5-4-2.9-11.9-10.9-10.5
					C517.1,173.8,512.1,177.1,512.2,182.3z"/>
			</g>
			<g>
				<path class="st13" d="M185.8,480c0.3,1-13.8,0.2-19.8-7.6c-4.4-5.7-5.7-14.7-3.5-21.8C162.5,450.6,181.4,463.9,185.8,480z"/>
			</g>
			<g>
				<path class="st13" d="M266.8,660.2c4.4,6.1,14.1,4.9,19.5-0.2c1.9-1.8,6.6-5.9,5.1-17.3c-0.9-7-4.3-9.9-11-14"/>
			</g>
			<g>
				<path class="st13" d="M205.1,663.1c-2.7,1.4-4.2,5.3-4.6,8.5c-0.5,4.6,2.5,9.1,6.4,11.1c6.6,3.3,12.7,0.8,15-3
					c-6.5-3.9-14.4-7.3-16.9-15"/>
			</g>
			<g>
				<path class="st13" d="M583.5,672.8c-5.5,3.7-16.2,7.5-20.7,2.4c-7.4-8.5-5.5-19.2-2.9-22.5c1.8-2.2,5.1-5,7.5-6.5
					C567.5,646.3,574.3,662,583.5,672.8z"/>
			</g>
			<g>
				<path class="st13" d="M642.3,672.7c4.9,5.2,9.1,5.4,14.3,5.2c2.6-0.1,5.3-0.6,7.2-2.5c2-2,2.8-5.2,2.7-8.2
					c-0.2-3-1.1-5.9-2.1-8.7c-0.9-2.7-2.1-7.3-4.6-8.2"/>
			</g>
			<g>
				<path class="st13" d="M651.6,551c2.8-2.2,5-0.1,8.4,0.9c3.4,0.9,5.5,3,7,6.5c0.7,1.6,1.4,5.9,1.1,7.7c-0.5,3.1-3.3,8.4-6.2,9.2"
					/>
			</g>
			<g>
				<path class="st11" d="M223.9,193.3c-0.5,3.8-8.4,2.8-11.5,0.7c-4.5-3.2-0.7-11.7,1.2-14.9c17.9-30,32.5-44.8,50.9-59.1
					c3.2-2.5,6.7-4.7,10.3-6.5c9.6-4.7,20.8-11.8,25.9-9.4c3.8,1.8,7.6,3.5,7.7,7.8c0,5.8-15.2,9-22,11.9
					c-17.6,7.4-38.7,25.5-56.6,57.1C227.6,184.7,223.9,193.3,223.9,193.3z"/>
			</g>
			<g>
				<path class="st11" d="M209.2,237.9c0.7-8.2,1.6-16.5,4.8-24c0.7-1.6,1.3-3.8,0-4.9c-0.4-0.3-0.9-0.5-1.4-0.6
					c-2.9-0.6-5.9-0.9-8.9-0.8c-0.8,0-1.7,0.1-2.4,0.6c-0.8,0.7-1.1,1.8-1.3,2.9c-1.4,6.5-2.3,13-2.9,19.6c-0.1,0.9-0.1,1.7,0.1,2.6
					c0.3,1,1,1.8,1.8,2.5c2.8,2.4,6.7,3.2,10.1,2.2"/>
			</g>
			<path class="st14" d="M433.6,485.7"/>
			<path class="st15" d="M354.8,493c0,0,12.3,9.5,36.4,12c38.8,4,57.6-15.3,129.1-22C520.4,482.9,419.4,473.4,354.8,493z"/>
			<g>
				<path class="st13" d="M200.3,598.1c-0.1,1.1-15.8-3.1-15.8-15.8c0-11.6,17.5-17.1,17.5-17.1S201,589.3,200.3,598.1z"/>
			</g>
			<path class="st13" d="M290,591.3c-5.3-0.2,77.1,0.8,137,3.3c65.7,2.7,131,20.2,131,20.2s-3.5-17-3.5-29.9L291,587
				C291,587,291.3,584.3,290,591.3z"/>
			<g>
				<path class="st13" d="M359.4,708.5c0,31.4-12.8,35.5-25.6,33.6c-17.4-2.5-17.4-22.6-17.4-22.6
					C350.4,756.5,359.4,689.9,359.4,708.5z"/>
			</g>
			<g>
				<path class="st13" d="M431.4,680.6c0,0,3.7,29.5,3.2,46.2c-0.5,16.5-44.8,20.9-38.6-10.9C396.4,716.6,421.4,761.9,431.4,680.6z"
					/>
			</g>
			<g>
				<path class="st13" d="M510.2,669.5c6.4,41.9,7,66.7-21.5,66.5c-24.5,0-17.3-21.5-17.9-27.6C470.8,708.4,509.5,763.1,510.2,669.5
					z"/>
			</g>
			<g>
				<g>
					<path class="st16" d="M558.5,566.6l-2.1,17.4c-36.8,0.8-252.5,0.2-266.6-0.2c-0.6-4.6,0.3-12.3-0.9-17.2
						C288.9,566.6,450.9,567.4,558.5,566.6z"/>
					<g>
						<path class="st7" d="M555.5,566.6c-0.7,5.8-1.4,11.6-2.1,17.4c1-1,2-2,3-3c-5.2,0.1-10.4,0.2-15.6,0.2
							c-7.9,0.1-15.7,0.1-23.6,0.1c-9.9,0-19.8,0-29.7,0.1c-11.1,0-22.3,0-33.4,0c-11.7,0-23.4,0-35.1,0c-11.6,0-23.3,0-34.9-0.1
							c-10.8,0-21.5-0.1-32.3-0.1c-9.2,0-18.5-0.1-27.7-0.1c-7,0-13.9-0.1-20.9-0.1c-4,0-8-0.1-12.1-0.1c-0.4,0-0.9,0-1.3,0
							c1,1,2,2,3,3c-0.8-6,0.4-12.1-1-18c-1,1.3-1.9,2.5-2.9,3.8c5.6,0,11.3,0,16.9,0.1c14.7,0.1,29.5,0.1,44.2,0.1
							c20.7,0.1,41.3,0.1,62,0.1c23.3,0,46.7,0,70,0c22.8,0,45.7-0.1,68.5-0.3c2.7,0,5.3,0,8-0.1c3.9,0,3.9-6,0-6
							c-22.5,0.2-45.1,0.2-67.6,0.3c-23.5,0.1-46.9,0.1-70.4,0c-21.2,0-42.3,0-63.5-0.1c-15.7,0-31.3-0.1-47-0.1
							c-6.9,0-13.9-0.3-20.8-0.1c-0.1,0-0.2,0-0.3,0c-2,0-3.3,1.9-2.9,3.8c1.2,5.2,0.1,11,0.7,16.4c0.2,1.6,1.2,3,3,3
							c3.2,0.1,6.4,0.1,9.6,0.1c6.3,0.1,12.6,0.1,18.9,0.1c8.8,0,17.5,0.1,26.3,0.1c10.4,0,20.9,0.1,31.3,0.1
							c11.4,0,22.9,0.1,34.3,0.1c11.8,0,23.6,0,35.4,0c11.3,0,22.7,0,34,0c10.3,0,20.6,0,30.8,0c8.4,0,16.8-0.1,25.2-0.1
							c5.9,0,11.8-0.1,17.7-0.2c1,0,1.9,0,2.9-0.1c1.8,0,2.8-1.4,3-3c0.7-5.8,1.4-11.6,2.1-17.4c0.2-1.6-1.5-3-3-3
							C556.7,563.6,555.7,565,555.5,566.6z"/>
					</g>
				</g>
			</g>
			<g>
				<path class="st13" d="M379,619.3c-4.1,5.8-2,15.1,3.4,19.6c5.4,4.5,13.1,4.6,19.4,1.7c6.9-3.2,12.7-11.5,10.1-19.2
					c-1.6-4.8-4.5-7-9.1-8C398.1,612.5,384.3,611.8,379,619.3z"/>
			</g>
			<g>
				<path class="st13" d="M464.4,620.5c4,3.8,9.3,0.6,11.3-4.3c1.9-4.9-2.8-10.9-7.6-10.1S459.5,615.9,464.4,620.5z"/>
			</g>
			<g>
				<path class="st13" d="M314.2,615.4c1,6.1,9.5,7.1,14.4,6.5c1.4-0.2,2.9-0.4,4.1-1.2c2-1.3,2.8-4.1,2.7-6.6
					c-0.2-5.8-5.2-11-10.6-11S313.2,607.2,314.2,615.4z"/>
			</g>
			<path class="st17" d="M422.3,426.2c0,0,6.8-7,30.7-5.2l-0.5-4.2l-30.8,1C421.8,417.8,420.6,420.1,422.3,426.2z"/>
			<path class="st17" d="M363.8,416.8c0,0,5.8-6.8,31.2,2.5l0.6-5.3l-29-7.3C366.5,406.7,363.4,410.5,363.8,416.8z"/>
			<path class="st17" d="M481.6,425.1c0,0,4.6-13.1,27.7-14.5l0.2-4.1l-28.2,6.7C481.3,413.1,480.5,417.7,481.6,425.1z"/>
			<g>
				<g>
					<path class="st7" d="M362.6,405.6c-1.3,7.2-4.4,14.5-3.7,21.9c0.6,6.8,4.8,12.5,10.4,16.1c5.1,3.3,11.8,4.7,17.4,2
						c4.8-2.3,7.6-7.5,9.4-12.3c2.1-5.7,3.1-11.8,3.9-17.7c0.2-1.6-0.4-3.2-2.1-3.7c-1.4-0.4-3.5,0.5-3.7,2.1
						c-0.7,4.9-1.4,9.7-2.8,14.5c-0.7,2.4-1.4,4.2-2.4,6.2c-1.1,2.2-1.9,3.2-3.6,4.8c-0.6,0.5,0.5-0.3-0.2,0.2
						c-0.2,0.1-0.4,0.2-0.5,0.4c-0.2,0.1-0.4,0.2-0.6,0.3c-0.1,0-0.9,0.4-0.2,0.1c-1.3,0.5-2.2,0.6-3.2,0.7c-2.1,0-4.2-0.5-6.2-1.5
						c-4.5-2.2-8.5-6.2-9.4-11.4c-0.6-3.2,0-6.6,0.7-9.7c0.8-3.8,2-7.6,2.7-11.4c0.3-1.6-0.4-3.2-2.1-3.7
						C364.8,403.1,362.9,404,362.6,405.6L362.6,405.6z"/>
				</g>
			</g>
			<g>
				<g>
					<path class="st7" d="M417.7,418.1c-0.1,7-0.2,14.3,1.8,21c1.3,4.7,4,9.3,8.6,11.3c5.2,2.3,11.8,2.2,16.7-0.7
						c5.1-3,8-8.5,9.7-14c1.7-5.8,2.3-12,2.3-18c0-3.9-6-3.9-6,0c0,2.2-0.1,4.4-0.3,6.6c0,0.6-0.1,1.1-0.2,1.7
						c0,0.3-0.1,0.6-0.1,0.9c0,0.4,0-0.1,0-0.1c0,0.2-0.1,0.4-0.1,0.7c-0.2,1.3-0.4,2.5-0.7,3.8c-0.3,1.3-0.6,2.6-1.1,3.9
						c-0.2,0.6-0.4,1.1-0.6,1.7c0,0.1-0.1,0.3-0.2,0.4c0.2-0.5,0-0.1,0,0c-0.2,0.3-0.3,0.6-0.5,1c-0.5,1.1-1.2,2.1-1.9,3.1
						c-0.3,0.4,0.2-0.2-0.2,0.3c-0.2,0.2-0.4,0.5-0.6,0.7c-0.4,0.4-0.8,0.8-1.3,1.2c-0.1,0.1-0.3,0.2-0.4,0.3c0,0,0.4-0.3,0.1-0.1
						c-0.2,0.2-0.5,0.3-0.7,0.5c-0.5,0.3-1,0.6-1.6,0.9c-0.4,0.2,0.3-0.1-0.4,0.1c-0.3,0.1-0.6,0.2-0.9,0.3
						c-0.3,0.1-0.6,0.2-0.9,0.2c-0.2,0-1,0.2-0.8,0.2c0.3,0-0.1,0-0.2,0c-0.2,0-0.4,0-0.6,0c-0.3,0-0.5,0-0.8,0
						c-0.6,0-1.2,0-1.9-0.1c-0.3,0-0.5-0.1-0.8-0.1c0.6,0.1,0.1,0-0.2-0.1c-0.5-0.1-1-0.2-1.5-0.4c-0.2-0.1-0.5-0.2-0.7-0.2
						c-0.1,0-0.3-0.1-0.4-0.1c0,0,0.5,0.2,0.3,0.1c-0.4-0.2-0.9-0.4-1.3-0.7c-0.2-0.1-0.3-0.2-0.5-0.3c-0.4-0.3,0.4,0.4-0.1-0.1
						c-0.4-0.3-0.7-0.7-1.1-1c-0.2-0.2-0.3-0.4-0.5-0.5c-0.1-0.1,0.3,0.4,0-0.1c-0.3-0.4-0.6-0.9-0.8-1.4c-0.3-0.5-0.5-0.9-0.7-1.4
						c0.2,0.5,0,0.1-0.1-0.2c-0.1-0.3-0.2-0.6-0.3-0.9c-0.4-1.3-0.8-2.7-1-4.1c-0.1-0.4-0.1-0.8-0.2-1.1c0-0.2-0.2-1.2-0.1-0.7
						c-0.1-0.8-0.2-1.7-0.3-2.5c-0.3-4-0.4-8-0.3-12C423.8,414.2,417.8,414.2,417.7,418.1L417.7,418.1z"/>
				</g>
			</g>
			<g>
				<g>
					<path class="st7" d="M476.3,413.8c0,11.1-0.4,27.8,13.3,30.9c5.9,1.3,12.4,0.3,16.8-4c3.9-3.9,5.7-9.5,6.6-14.8
						c1.1-6.4,1.2-13,1.2-19.5c0-3.9-6-3.9-6,0c0,5.1,0,10.3-0.6,15.4c0,0.3-0.1,0.7-0.1,1c0,0.4,0,0,0-0.1c0,0.2-0.1,0.4-0.1,0.6
						c-0.1,0.7-0.2,1.3-0.3,2c-0.2,1.2-0.5,2.5-0.9,3.7c-0.2,0.6-0.3,1.1-0.5,1.7c-0.1,0.2-0.2,0.5-0.3,0.7c0,0.1-0.1,0.2-0.1,0.4
						c-0.1,0.3,0.2-0.4-0.1,0.1c-0.5,1-1,2-1.6,3c-0.1,0.2-0.3,0.4-0.4,0.6c-0.3,0.4,0.3-0.4,0,0c-0.1,0.1-0.1,0.2-0.2,0.3
						c-0.4,0.4-0.7,0.8-1.2,1.2c-0.2,0.2-0.4,0.3-0.5,0.5c0.5-0.4-0.1,0.1-0.2,0.2c-0.5,0.3-0.9,0.6-1.4,0.8c-0.6,0.3,0.2,0-0.3,0.1
						c-0.2,0.1-0.5,0.2-0.7,0.2c-0.6,0.2-1.2,0.3-1.8,0.4c-0.5,0.1,0.3,0-0.4,0.1c-0.3,0-0.6,0-0.9,0.1c-0.8,0-1.6,0-2.3,0
						c-0.8-0.1-0.8,0-1.6-0.2c-0.7-0.1-1.3-0.3-2-0.5c-0.2-0.1-0.3-0.1-0.5-0.2c0,0,0.4,0.2,0.1,0c-0.2-0.1-0.5-0.2-0.7-0.4
						c-0.3-0.1-0.5-0.3-0.8-0.5c-0.1-0.1-0.2-0.1-0.3-0.2c-0.4-0.2,0.3,0.3,0,0c-0.4-0.4-0.8-0.7-1.2-1.1c-0.1-0.1-0.6-0.7-0.4-0.5
						c0.2,0.2-0.3-0.4-0.3-0.5c-0.3-0.5-0.6-1-0.9-1.6c-0.1-0.2-0.3-0.7-0.1-0.2c-0.1-0.3-0.3-0.7-0.4-1c-0.5-1.3-0.8-2.7-1-4.1
						c-0.1-0.4-0.1-0.8-0.2-1.2c0.1,0.5,0-0.4-0.1-0.6c-0.1-0.8-0.2-1.6-0.2-2.3c-0.2-3.4-0.2-6.8-0.2-10.3
						C482.3,410,476.3,410,476.3,413.8L476.3,413.8z"/>
				</g>
			</g>
			<g>
				<g>
					<path class="st7" d="M521,488.2c1.1-1.4,1.9-3,1.4-4.9c-0.4-1.5-1.6-2.6-2.9-3.3c-3.3-1.7-7.2-2-10.8-2.3
						c-10.8-0.9-21.6-0.4-32.4,0.1c-5.2,0.2-10.3,0.5-15.5,0.7c-3.5,0.1-7,0.3-10.5,0.2c-15.9-0.6-31.9-1-47.8,0.7
						c-14.8,1.6-29.4,4.8-44,7.9c-2.4,0.5-4.9,1-7.3,1.5c-2.3,0.5-2.8,3.5-1.3,5c2.6,2.6,5.5,4.9,8.5,7.1c7,5.3,14.7,9.8,22.7,13.4
						c11.7,5.2,24.1,8.6,36.9,10.1c16,1.8,32.3,0.2,47.9-3.9c9.3-2.5,18.6-5.8,27.2-10.2c8.5-4.5,16.6-10.2,23.4-17
						C518.1,491.6,519.6,490,521,488.2c1-1.2,1.2-3,0-4.2c-1.1-1.1-3.2-1.2-4.2,0c-5.9,7.1-13.2,12.9-21.1,17.7
						c-8,4.9-16.6,8.3-25.5,11.1c-15.4,4.8-31.2,7-47.3,5.9c-6.7-0.5-12.6-1.4-19.3-3.1c-5.7-1.4-11.3-3.2-16.7-5.5
						c-0.2-0.1-1-0.4-0.4-0.2c-0.3-0.1-0.6-0.3-0.9-0.4c-0.7-0.3-1.3-0.6-2-0.9c-1.2-0.5-2.3-1.1-3.5-1.7c-2.2-1.1-4.3-2.2-6.4-3.4
						c-3.5-2-7-4.2-10.3-6.6c-0.7-0.5-1.3-1-2-1.5c-0.2-0.1-0.3-0.2-0.5-0.3c-0.1-0.1-0.7-0.5-0.2-0.1c0.5,0.4-0.1-0.1-0.2-0.1
						c-0.2-0.1-0.3-0.2-0.5-0.4c-1-0.8-1.9-1.6-2.9-2.4c-1-0.9-1.9-1.8-2.9-2.7c0,0-0.1-0.1-0.1-0.1c-0.4,1.7-0.9,3.3-1.3,5
						c8.5-1.8,16.9-3.6,25.4-5.3c3.4-0.7,6.9-1.3,10.3-1.9c1.6-0.3,3.2-0.5,4.7-0.8c0.8-0.1,1.5-0.2,2.3-0.3c0.3,0,0.7-0.1,1-0.1
						c0.2,0,0.4-0.1,0.6-0.1c0.3,0-0.4,0,0.2,0c14.2-1.8,28.6-2,42.9-1.6c5.4,0.1,10.7,0.5,16.1,0.3c4.5-0.1,9-0.4,13.5-0.5
						c10.8-0.5,21.7-1,32.5-0.7c2.3,0.1,4.5,0.2,6.8,0.4c0.5,0,1,0.1,1.5,0.1c0.2,0,0.5,0.1,0.7,0.1c0.1,0,0.2,0,0.3,0
						c0.5,0.1-0.6-0.1-0.2,0c0.8,0.1,1.6,0.2,2.5,0.4c0.7,0.1,1.4,0.3,2,0.5c0.1,0,0.3,0.1,0.4,0.2c0.6,0.2-0.2-0.1-0.2-0.1
						c0.2,0.1,0.5,0.2,0.7,0.4c0.1,0,0.2,0.1,0.2,0.2c0.4,0.2-0.6-0.5-0.3-0.2c0.6,0.6-0.2-0.4,0-0.1c0.3,0.5-0.3-0.9-0.1-0.2
						c0.1,0.4-0.1-0.9-0.1-0.5c0,0.6,0.1-0.8,0.1-0.4c-0.2,0.8,0.3-0.4,0.1-0.1c-0.1,0.1-0.1,0.2-0.1,0.3c-0.4,0.5,0.4-0.5,0.2-0.2
						c-1,1.3-1.2,3,0,4.2C517.8,489.3,520,489.5,521,488.2z"/>
				</g>
			</g>
			<g class="st18">
				<path class="st6" d="M673.6,302.6c0,0-11,123.6-117.3,264c-5.2,6.8-155.7-6.3-266.3,0.8c-17.8-32-15.2-28.4-15.2-28.4
					C363.7,575.8,633.6,545.5,673.6,302.6z"/>
			</g>
			<g>
				<g>
					<path class="st7" d="M292.6,565.9c-17.3-31.1-34.2-62.4-49.1-94.7c-9.4-20.4-18-41.3-27.4-61.7
						c-16.9-36.5-33.1-73.7-37.2-114.1c-2.1-20.4-1.5-41,0.3-61.4c0.7-8.4,2.1-16.5,4.1-25c4.6-19,12.5-37,23.2-53.4
						c12.8-19.6,29.7-36.4,48.9-49.7c24.8-17.1,53.1-28.6,82.2-36c38.1-9.6,77.9-12.8,117.1-11.6c31.3,0.9,62.7,5.2,92.3,15.4
						c22.6,7.8,44.1,19.2,62.3,34.8c15.6,13.3,28.5,29.4,38.3,47.4c9.1,16.5,15.4,34.3,19.6,52.7c3.9,16.9,5.8,33.5,6.3,50.9
						c0.5,14.2-0.1,28.4-1.5,42.5c-0.3,2.8-0.6,5.7-1,8.5c-0.1,0.5,0.1-0.5,0,0.2c0,0.3-0.1,0.7-0.1,1c-0.1,0.7-0.2,1.3-0.3,2
						c-0.2,1.1-0.3,2.3-0.5,3.4c-0.6,3.6-1.2,7.3-2,10.9c-2.8,12.5-6.7,24.8-10.5,36.9c-6.5,20.7-13.9,41.1-22.1,61.1
						c-13,31.7-28,62.7-45.7,92c-5.9,9.8-12.1,19.5-18.9,28.7c-3.8,5.2-7.8,10.6-12.8,15.1c-0.3,0.3-0.7,0.6-1.1,0.9
						c-0.6,0.5,0.6-0.4,0,0c-0.2,0.1-0.3,0.2-0.5,0.3c-0.3,0.2-0.5,0.3-0.8,0.5c-0.3,0.2,0.7-0.5-0.1,0c0.5-0.4,1,0-0.2-0.1
						c-1.3,0-2.7,0-4,0c-2.7,0-5.3,0-8,0c-4.8,0-9.6,0-14.4,0c-18.6,0-37.2,0-55.8,0c-38.4,0-76.8,0.1-115.2,0.3
						c-22.7,0.1-45.4,0.3-68,0.4c-3.9,0-3.9,6,0,6c43.8-0.3,87.7-0.5,131.5-0.7c37.5-0.1,75-0.1,112.6-0.1c5,0,10,0,15,0
						c2.7,0,6,0.6,8.7-0.2c1.9-0.6,3.5-2.1,5-3.4c5.2-4.8,9.4-10.6,13.6-16.3c16.2-22.1,29.7-46.2,41.9-70.7
						c18.4-36.8,33.7-75.3,46-114.6c4.8-15.3,9.5-30.6,12-46.5c1.9-12.2,3.1-24.6,3.6-37c0.6-16.3,0-32.6-2.1-48.8
						c-2.4-18.5-6.5-36.8-13.1-54.3c-7.2-18.9-17.1-36.7-29.9-52.4c-14.3-17.4-32-31.8-51.7-42.6c-24.4-13.4-51.4-21.6-78.7-26
						c-37.5-6.1-76.2-6.1-113.9-2.1c-35.1,3.7-69.9,11.5-102.2,26c-24.3,11-47,26-65.5,45.3c-15.1,15.7-27.3,34-35.8,54
						c-7.3,17.1-11.8,35.2-13.4,53.8c-1.8,20.6-2.4,41.5-0.2,62.1c2,18.8,6.3,37.2,12.4,55.1c10.7,31.7,26.1,61.6,39.4,92.2
						c10.3,23.8,21.2,47.3,33,70.4c9.5,18.5,19.5,36.8,29.6,55C289.3,572.3,294.5,569.3,292.6,565.9z"/>
				</g>
			</g>
			<g>
				<g>
					<path class="st7" d="M353.2,259.9c-2.6,9.3-3.3,19.2-3,28.8c0.3,10,1.8,20.1,4.4,29.7c2.4,8.7,5.8,17.3,11,24.7
						c5.7,7.9,13,14.5,21.5,19.3c8.6,4.8,18.1,7.9,27.7,9.7c9.8,1.9,20,2.8,30,2.4c19.8-0.8,39.7-7.3,53.3-22.3
						c7.3-8,12.8-17.4,16.3-27.6c3.4-10,4.6-20.7,4.2-31.2c-0.5-11-2.6-21.9-5.9-32.4c-2.5-8.2-5.6-16.2-9.7-23.7
						c-3.7-6.6-8.3-12.8-14-17.8c-6.1-5.5-13.2-9.6-20.8-12.6c-13.1-5.2-27.4-7.3-41.5-6.4c-13.8,0.9-27.7,4.5-39.7,11.5
						c-13.8,8-24.3,20.3-30.1,35.1C355.4,251.2,354.1,255.5,353.2,259.9c-0.3,1.6,0.5,3.2,2.1,3.7c1.5,0.4,3.3-0.5,3.7-2.1
						c3.3-15.6,10.8-29.1,23.3-39c0.2-0.1,0.4-0.3,0.5-0.4c-0.1,0.1-0.4,0.3,0,0c0.4-0.3,0.7-0.5,1.1-0.8c0.7-0.5,1.5-1.1,2.2-1.6
						c1.4-0.9,2.9-1.8,4.3-2.7c1.5-0.8,3-1.6,4.5-2.4c0.8-0.4,1.5-0.7,2.3-1.1c0.4-0.2,0.7-0.3,1.1-0.5c-0.5,0.2,0,0,0.1-0.1
						c0.2-0.1,0.5-0.2,0.7-0.3c6.2-2.5,12.6-4.2,19.1-5.3c0.7-0.1,1.5-0.2,2.2-0.3c0.6-0.1,0,0-0.1,0c0.2,0,0.4-0.1,0.6-0.1
						c0.4-0.1,0.9-0.1,1.3-0.2c1.5-0.2,3-0.3,4.6-0.4c3-0.2,6-0.3,9-0.2c2.7,0.1,5.4,0.3,8,0.6c0.3,0,0.7,0.1,1,0.1
						c0.5,0.1-0.1,0-0.2,0c0.2,0,0.4,0.1,0.6,0.1c0.6,0.1,1.3,0.2,1.9,0.3c2.2,0.4,4.5,0.8,6.7,1.4c8.2,1.9,15.4,4.5,22.5,8.8
						c1.6,0.9,3.1,1.9,4.5,3c0.2,0.1,1.1,0.8,0.7,0.6c0.3,0.3,0.7,0.5,1,0.8c0.7,0.6,1.4,1.2,2.1,1.8c2.7,2.4,5.1,5,7.3,7.8
						c0.6,0.7-0.2-0.3,0.1,0.2c0.1,0.2,0.3,0.4,0.4,0.6c0.3,0.3,0.5,0.7,0.7,1c0.6,0.8,1.1,1.5,1.6,2.3c1,1.6,2,3.2,2.9,4.8
						c0.9,1.6,1.8,3.3,2.6,5c0.4,0.8,0.8,1.7,1.1,2.5c0.2,0.5,0.4,0.9,0.6,1.4c0.1,0.3,0.2,0.5,0.4,1c3.6,8.8,6.3,17.9,8.1,27.2
						c3.8,19.7,2.4,40.5-7.9,58.1c-4.9,8.5-11.5,16.1-19.6,21.5c-7.7,5.1-16.2,8.2-25.3,9.9c-9,1.7-18.6,1.9-28,1.1
						c-9.3-0.8-18.7-2.5-27.7-5.6c-8.3-2.9-16.4-7.3-22.9-13.1c-6.5-5.8-11.5-12.9-14.9-20.9c-0.2-0.5-0.7-1.7-1-2.5
						c-0.4-1.1-0.8-2.1-1.2-3.2c-0.7-2.2-1.4-4.4-2-6.6c-1.2-4.6-2.2-9.2-2.8-13.8c-1.4-9.2-1.7-19.1-0.7-28.6
						c0.4-3.9,1.2-8.2,2.3-12.2C360,257.7,354.2,256.2,353.2,259.9z"/>
				</g>
			</g>
			<g>
				<g>
					<path class="st7" d="M115.8,444.5c12.2-3.6,25.2-4.1,37,1.1c10.4,4.7,18.8,13,25.2,22.4c17.2,25.2,22.4,55.9,22.8,85.9
						c0.2,13-0.2,26-1.1,38.9c-0.7,9.6-1.6,19.3-1.9,28.9c-0.5,17.1,0,38.2,12.9,51.2c6.5,6.6,15.5,9.6,24.7,10.1
						c10.4,0.6,18.6-6.1,24.8-13.9c7.7-9.8,13.1-21.2,17.8-32.6c5.1-12.5,9.4-25.4,12.3-38.6c5-23,5.3-46.6,0.7-69.8
						c-4.2-21.4-12.3-41.8-20.4-62c-8.6-21.3-17.1-42.7-22.7-65.1c-5.7-22.9-8.1-46.3-7.3-69.9c0.9-26.8,5.3-53.6,14.6-78.8
						c12.3-33.6,34-63.2,63.8-83.4c19-12.8,40.3-21.7,62.4-27.3c16.5-4.2,32.9-6.9,49.9-6.8c29.1,0.2,58.7,6.5,85.4,18
						c31.4,13.4,59.5,34.8,78,63.7c23.9,37.4,29.1,82.7,24.3,126c-3,27.4-8.9,54.4-18.4,80.3c-6.9,18.8-16,36.6-24.7,54.5
						c-8,16.5-15.2,33.3-19.1,51.2c-2.2,10.1-3.5,20.4-3.8,30.7c-0.5,13.1-0.7,26.4,0.7,39.4c0.9,8,2.6,15.8,4.7,23.6
						c2.1,7.8,3.6,16,6.2,23.6c4.3,12.7,13,24.9,23.5,33.1c6.1,4.7,13,8.2,20.7,9c8.6,0.9,17.2-1.9,24.3-6.6
						c11.3-7.5,19.7-18.7,26.7-30.1c7-11.4,13-24,14-37.6c1.5-20.3-10.7-37.2-17-55.7c-3.5-10.3-6.1-22-4.1-32.8
						c1.5-8.4,5.6-16,11.5-22.1c11.4-11.7,28.5-18.3,44.8-18.2c6.7,0,13.7,1.2,19.4,5c5.5,3.7,8.3,10.3,9,16.8
						c1.3,13.7-13.2,19-23.2,24.1c-5.5,2.8-11.2,5.9-15.2,10.7c-4.5,5.3-5.6,11.9-4.4,18.7c1,5.6,3.7,10.7,5.5,16.1
						c2.4,7.1,4.2,14.4,5,21.8c1.7,14.5-0.1,29.1-4.9,43c-5.1,14.9-13.4,28.6-23.1,41.1c-9,11.6-19.5,22.5-31.6,31
						c-11.7,8.1-25.4,14.2-39.9,13.7c-12.2-0.4-24.5-5.8-34.1-13.3c-15.2-12-23-29.8-31.8-46.6c-7.3-14-16.8-27.6-33.4-30.5
						c-2.3-0.4-4.2,1.3-3.7,3.7c2.5,12.8,5.1,25.6,6.8,38.5c1.5,11.3,2.6,23.1,1,34.4c-1.1,7.5-3.9,16.3-11.8,19.2
						c-4.6,1.7-10.1,1.2-14.9,0.5c-3.8-0.6-8.2-1.7-10.1-5.4c-1.7-3.2-1.5-7.1-1.4-10.5c0.2-5.3,1-10.6,1.3-15.9
						c0.4-6.4,0.1-12.7-0.8-19.1c-0.9-6.5-2-13.5-6.7-18.5c-8-8.3-21.1-7.6-29.2,0.1c-11.3,10.8-7,29.3-5.5,43
						c0.5,4.4,0.9,8.8,0.9,13.3c0,2.8,0.2,6.1-0.9,8.7c-1.1,2.7-3.7,4.5-6.2,5.8c-6.1,3-14.4,3.5-20.4,0c-9.3-5.6-5.5-17.5-4.5-26.1
						c1.3-10.9,2.6-23.8-2.1-34.1c-8.1-17.5-34.3-8.4-39.6,6.7c-3.8,10.8-0.6,22.6-0.1,33.6c0.3,8.3-1.5,17.7-8.6,23
						c-11.3,8.3-27.8,1.2-30.3-12.3c-0.3-1.9-0.4-3.9-0.3-5.8c0.2-3.7,0.5-7.5,0.7-11.2c0.3-6.3,0.9-12.6,1.8-18.8
						c1.5-9.7,4-19.3,5.1-29c0.9-7.3,1.3-14.6,1.5-22c0.1-2.8-4.4-4.3-5.6-1.5c-9.4,21.5-21.6,42.1-38.1,59
						c-7.9,8.1-16.8,15.2-26.7,20.7c-4.8,2.6-9.2,4.1-15.1,5.1c-15.3,2.5-32.2,0.6-45.4-7.9c-9-5.8-15-14.5-19.8-23.9
						c-5.4-10.4-8.9-21.7-11-33.2c-4.4-24.1-3.2-49-2.7-73.3c0.4-19.9,1.3-41.1-5.5-60.2c-3.6-10-9.7-19.3-19.6-23.9
						c-7.8-3.6-16.3-4.1-24.8-4.4c-3.4-0.1-7.8-0.2-10.5-0.7c-1.6-0.3-3.2-0.6-4.7-1.2c-0.6-0.2-2.7-1.3-3-1.6
						c-1.4-1.1-1.9-1.8-2.6-3.1c-1.9-3.5-3.9-6.7-4.2-10.8c-0.8-9.9,6-19.1,13.3-25.1C106.3,448.6,110.9,446.1,115.8,444.5
						c3.7-1.2,2.1-7-1.6-5.8c-17.7,5.8-37.9,26.1-29.4,46.2c1.8,4.2,4.4,8.8,8.3,11.5c2.9,1.9,6.3,2.8,9.7,3.3
						c8,1.1,16.5,0.4,24.2,1.7c9.3,1.6,16.9,6.3,21.8,14.6c9.2,15.5,9.5,35.8,9.3,53.3c-0.2,25.8-2.1,51.8,1,77.5
						c1.4,11.8,3.9,23.5,8.3,34.6c4.2,10.8,9.9,21.8,18.1,30c12.7,12.6,30.9,17.4,48.3,16.7c6.2-0.3,12.6-1.1,18.6-2.9
						c8.3-2.6,15.9-8.1,22.7-13.3c19.1-14.8,33.7-34.8,44.9-56c2.8-5.4,5.4-10.8,7.8-16.4c-1.9-0.5-3.7-1-5.6-1.5
						c-0.4,12.8-1.6,25.4-4.2,37.9c-2.5,12.1-4,24.1-4.4,36.4c-0.2,5.1-0.9,10,0.2,15.1c0.9,3.8,2.7,7.3,5.2,10.3
						c4.7,5.7,12,8.9,19.4,9c7.4,0.1,14.6-3.2,19.3-9c6.8-8.4,7.2-19.3,6.1-29.5c-1-9.1-3.6-22.5,2.9-30.4c3.1-3.8,7.9-5.6,12.5-7
						c3.2-0.9,7-0.9,9.8,1.1c7.4,5.1,6.4,18.5,6,26.1c-0.4,7.5-2.1,14.8-2.5,22.3c-0.3,4.5,0.5,9.2,3,13c8.2,13,32,12.2,40.2-0.5
						c3.3-5.1,2.7-12.2,2.4-18c-0.5-9.3-2.3-18.5-2.5-27.8c-0.2-7,0.2-14.3,5.5-19.4c3.9-3.7,9.6-5.4,14.8-3.8
						c6.9,2.1,9.2,8.4,10.3,14.9c1.2,6.6,1.7,13.1,1.4,19.8c-0.2,5.6-0.9,11.1-1.3,16.7c-0.3,4.2-0.4,8.7,1,12.7
						c3.5,9.8,15,11.1,24.1,11.3c9.1,0.1,17-4.3,21.1-12.5c4.6-9.4,4.9-20.7,4.5-31c-0.6-12.9-2.6-25.7-4.9-38.3
						c-1.1-6.3-2.4-12.6-3.6-18.9c-1.2,1.2-2.5,2.5-3.7,3.7c17.4,3,25.4,19,32.7,33.3c8.9,17.6,18.4,35,35.3,46.2
						c10.5,6.9,23.1,11.4,35.8,11.1c14.1-0.3,27.5-6.1,39.1-14c12.4-8.4,23.1-19.2,32.5-30.9c9.6-12.1,17.9-25.1,23.7-39.4
						c5.4-13.4,8.3-27.9,7.9-42.3c-0.2-7.1-1.2-14.2-2.8-21.1c-1.7-7.2-4.5-14-7-21c-2.1-6-3-12.6,1.1-18c3.7-4.9,9.8-7.8,15.1-10.4
						c11.1-5.5,24.8-11.7,25.5-25.9c0.3-7.3-2.4-15.7-7.5-21.1c-4.5-4.9-11.1-7.6-17.5-8.7c-33.5-6.1-74.2,18.6-72.2,55.3
						c0.6,11.4,3.7,22.5,8.1,33c3.8,9.1,8.6,17.9,11.4,27.4c3,10.2,2.8,20.4-0.4,30.6c-4.5,14.4-13.4,28.5-23.5,39.7
						c-6.8,7.5-15.4,14.7-25.7,16.2c-7.3,1.1-14.4-1-20.6-4.9c-11.2-7-20.4-19.5-24.9-31.8c-2.7-7.3-4-15.3-6.1-22.9
						c-2.1-7.8-4.1-15.6-4.9-23.7c-1.4-12.9-1.2-26-0.7-39c0.4-10.4,1.6-20.7,3.9-30.9c4.1-17.9,11.5-34.6,19.5-51.1
						c9-18.4,18-36.7,25-56c9.5-26.3,15.1-53.9,17.9-81.7c2.4-23.8,1.9-48-3.1-71.5c-7.9-37-27.9-70.4-57.5-94.1
						c-25.7-20.6-56.7-33.9-88.8-40.7c-13.8-2.9-27.9-4.6-42-4.9c-16.2-0.3-32.1,2-47.9,5.5c-42,9.5-81.2,30.5-108.1,64.6
						c-20.3,25.8-32.7,56.9-38.7,89c-6.3,33.4-6.7,68.2-0.1,101.6c4.6,23.4,12.7,45.7,21.5,67.8c8.1,20.3,16.7,40.6,22.1,61.8
						c5.8,22.7,7.2,46.2,3.2,69.3c-2.3,13.4-6.2,26.4-10.9,39.1c-4.5,12-9.8,24-17.1,34.5c-3.1,4.4-6.6,8.7-11.1,11.7
						c-4.1,2.7-8.1,3.5-12.9,3.1c-8.6-0.7-16.8-4.5-21.8-11.7c-5-7.2-6.9-16.1-7.7-24.7c-0.9-9.8-0.6-19.6,0.1-29.4
						c1.6-25.1,3.8-50.1,1.7-75.3c-2.3-28.2-10.5-57.8-29.5-79.5c-7.1-8.2-16.2-14.8-26.6-18.2c-11.6-3.7-24.1-2.9-35.7,0.5
						C110.5,439.8,112.1,445.6,115.8,444.5z"/>
				</g>
			</g>
		</g>
	</g>
</g>
</svg>
